<svg width="10" height="10" viewBox="0 0 10 10" fill="none" xmlns="http://www.w3.org/2000/svg">
<path d="M9.98438 7.55871L9.53027 9.52746C9.46649 9.80578 9.22188 10.0005 8.93535 10.0005C4.00781 10.0001 0 5.9923 0 1.06457C0 0.77824 0.194707 0.533318 0.473047 0.469842L2.4418 0.01574C2.72852 -0.0507053 3.02148 0.0981228 3.14062 0.369646L4.04922 2.48879C4.15543 2.7384 4.08379 3.02922 3.87383 3.2007L2.82227 4.04504C3.48594 5.39699 4.58516 6.49621 5.9375 7.16027L6.79844 6.10949C6.96812 5.89894 7.26113 5.82609 7.51074 5.9342L9.62988 6.8426C9.88477 6.97668 10.0508 7.27355 9.98438 7.55871Z" fill="#333333"/>
</svg>
